# xmcd CD database file
#
# Track frame offsets:
#	150
#	15759
#	30751
#	63823
#	86084
#	110652
#	131365
#	160284
#	180290
#	196735
#	226368
#	239179
#	254619
#	288037
#	312539
#	324888
#
# Disc length: 4650 seconds
#
# Revision: 0
# Processed by: cddbd v1.5.2PL0 Copyright (c) Steve Scherf et al.
# Submitted via: CDex 1.70beta1
#
DISCID=c6122810
DTITLE=Various Artist - Best Ballads 100 Disc1
DYEAR=2007
DGENRE=Jazz
TTITLE0=Sonny Stitt/My Funny Valentine
TTITLE1=Chet Baker/I Fall in Love Too Easily
TTITLE2=Lee Morgan/All the Way
TTITLE3=Cannonball Adderley/I Can't Get Started
TTITLE4=The Three Sounds/For All We Know
TTITLE5=Holly Cole/My Foolish Heart
TTITLE6=Freddie Hubbard/But Beautiful
TTITLE7=Art Pepper/Bewitched
TTITLE8=Jimmy Smith/Ain't Misbehavin'
TTITLE9=Jacke McLean/Lover Man
TTITLE10=Nancy Wilson/It Never Entered My Mind
TTITLE11=Grant Green/I Can't Stop Loving You
TTITLE12=Dexter Gordon/You've Changed
TTITLE13=Horace Parlan/Prelude to a Kiss
TTITLE14=Joe Williams/Every Time We Say Goodbye
TTITLE15=Phil Woods feat. Junko Onishi/Embraceable You
EXTD=YEAR: 2007
EXTT0=
EXTT1=
EXTT2=
EXTT3=
EXTT4=
EXTT5=
EXTT6=
EXTT7=
EXTT8=
EXTT9=
EXTT10=
EXTT11=
EXTT12=
EXTT13=
EXTT14=
EXTT15=
PLAYORDER=
